<svg width="480" height="480" viewBox="0 -26 480 480" fill="none" xmlns="http://www.w3.org/2000/svg">
  <style>
    :root {
      --brand-color: #276EF4;
      --contrast-color: #FFFFFF;
    }
    @media (prefers-color-scheme: dark) {
      :root {
        --brand-color: #60A5FA; /* Brighter blue for dark mode visibility */
        --contrast-color: #FFFFFF;
      }
    }
    .brand-path { fill: var(--brand-color); }
    .contrast-path { fill: var(--contrast-color); }
  </style>
  <path class="brand-path" d="M276.528 390.321C174.42 390.321 91.346 306.758 91.346 204.037C91.346 101.321 174.42 17.7503 276.528 17.7503C378.641 17.7503 461.712 101.321 461.712 204.037C461.712 306.758 378.641 390.321 276.528 390.321ZM463.413 124.614C453.197 100.314 438.576 78.4936 419.948 59.7602C401.329 41.0268 379.64 26.3186 355.481 16.0393C330.47 5.39865 303.906 -3.05176e-05 276.531 -3.05176e-05C249.15 -3.05176e-05 222.588 5.39865 197.577 16.0393C173.421 26.3186 151.732 41.0268 133.107 59.7602C114.482 78.4936 99.8609 100.314 89.6451 124.614C79.0648 149.774 73.7007 176.496 73.7007 204.037C73.7007 231.578 79.0648 258.303 89.6451 283.461C99.8609 307.758 114.482 329.578 133.107 348.314C151.732 367.048 173.421 381.756 197.577 392.037C222.588 402.678 249.15 408.077 276.531 408.077C303.906 408.077 330.47 402.678 355.481 392.037C379.64 381.756 401.329 367.048 419.948 348.314C438.576 329.578 453.197 307.758 463.413 283.461C473.996 258.303 479.36 231.578 479.36 204.037C479.36 176.496 473.996 149.774 463.413 124.614Z" />
  <path class="brand-path" d="M300.514 295.562L297.709 295.993V323.063H267.378V295.964L264.539 295.557C244.126 292.621 218.597 282.658 210.935 252.126L252.023 241.225C255.205 252.814 264.745 264.01 283.201 264.01C298.308 264.01 306.966 256.993 306.966 244.753C306.966 227.845 291.016 224.022 272.547 219.593C268.39 218.597 264.087 217.563 259.703 216.338C235.418 209.359 212.947 198.203 212.947 164.115C212.947 126.659 239.395 114.911 261.578 111.659L264.412 111.242V84.1473H295.07V111.207L297.862 111.656C324.286 115.881 341.356 129.17 348.651 151.179L309.987 161.687C306.16 149.676 295.276 142.869 279.577 142.869C257.535 142.869 255.155 155.871 255.155 161.461C255.155 177.748 269.053 181.241 294.244 187.578C319.894 194.35 351.812 202.78 351.812 241.77C351.812 281.627 319.672 292.578 300.514 295.562ZM358.549 58.8143C278.944 13.3186 177.393 41.4519 132.163 121.532C86.9343 201.603 114.904 303.756 194.507 349.257C274.113 494.75 375.664 366.62 420.893 286.542C466.117 206.468 438.153 104.305 358.549 58.8143Z" />
  <ellipse class="brand-path" cx="285.064" cy="201.16" rx="123.386" ry="124.12" />
  <path class="contrast-path" d="M343.474 114.133H315.835C319.826 120.493 322.416 127.659 323.592 135.632H350.821L343.335 164.166H323.321C321.233 176.7 316.396 186.931 308.824 194.858C301.245 202.792 290.468 208.876 276.487 213.115L331.759 280.459V282.48H280.57L218.083 208.383L217.945 182.285H250.077C263.054 182.015 271.452 175.978 275.265 164.166H214L221.486 135.632H274.174C270.177 127.068 262.373 122.606 250.757 122.245H214.132L222.847 85.6H350.96L343.474 114.133Z" />
  <path class="contrast-path" d="M336.177 382.701C336.177 382.701 287.53 318.704 211.799 295.429C211.799 295.429 296.621 360.479 310.857 406.584C310.857 406.584 283.556 409.711 249.385 406.926C215.573 404.164 175.043 395.616 147.557 372.529C64.8262 303.044 96.0205 251.916 36.1067 184.225C36.1067 184.225 86.7052 170.473 146.799 175.378C181.532 178.21 219.424 187.275 252.589 208.796C311.153 246.818 340.617 327.599 336.177 382.701ZM263.319 192.055C231.576 171.448 192.907 159.161 148.399 155.526C85.5986 150.401 33.1381 164.395 30.9354 164.984L0 173.393L21.3191 197.467C45.0733 224.322 52.854 248.252 61.0785 273.58C71.9889 307.25 84.3969 345.424 134.861 387.816C160.894 409.671 198.884 422.785 247.784 426.776C283.458 429.685 311.895 426.515 313.089 426.372L336.84 423.651L354.24 404.796L355.914 384.312C360.824 323.435 330.042 235.367 263.319 192.055Z" />
  <path class="brand-path" d="M252.594 208.801C234.37 196.973 214.71 188.904 194.949 183.58C178.743 179.183 162.445 176.651 146.799 175.378C120.417 173.226 95.8465 174.666 76.6113 176.953C52.0225 179.895 36.1045 184.22C36.1045 184.22C96.0261 251.913 64.8213 303.047 147.552 372.531C167.6 389.365 194.585 398.462 220.832 403.225C229.785 404.862 238.665 405.986 247.153 406.73L247.259 406.744C247.967 406.805 248.675 406.865 249.383 406.924C257.932 407.623 266.04 407.939 273.398 408.032C290.13 408.273 303.005 407.317 308.266 406.849C309.954 406.698 310.86 406.592 310.86 406.592L310.815 406.44C308.388 398.661 303.969 390.364 298.286 381.918C277.273 350.666 239.056 317.575 221.313 303.032C215.436 298.212 211.802 295.436 211.802 295.436C214.863 296.376 217.89 297.391 220.861 298.454C263.341 313.709 296.476 341.157 316.121 360.583C329.084 373.397 336.17 382.71 336.17 382.71C337.287 368.923 336.275 353.545 333.214 337.623C324.065 289.869 296.521 237.309 252.594 208.801Z" />
</svg>
